<svg width="40" height="41" viewBox="0 0 40 41" fill="none" xmlns="http://www.w3.org/2000/svg">
<g clip-path="url(#clip0_4903_168544)">
<path d="M19 9C19 8.17157 19.6716 7.5 20.5 7.5C21.3284 7.5 22 8.17157 22 9V34.5H19V9Z" fill="#B7876C"/>
<path d="M19 23V20V19H23L19 23Z" fill="#8B6149"/>
<rect x="3" y="10.5" width="34" height="11" rx="2" fill="white"/>
<path d="M12.3145 18.5H10.4468V13.1973H12.3364C13.9331 13.1973 14.9109 14.1897 14.9072 15.8413C14.9109 17.5002 13.9331 18.5 12.3145 18.5ZM11.5454 17.5552H12.2705C13.2812 17.5552 13.8086 17.0315 13.8086 15.8413C13.8086 14.6621 13.2812 14.1421 12.2778 14.1421H11.5454V17.5552ZM20.5615 15.8486C20.5615 17.5808 19.4885 18.5732 18.0859 18.5732C16.6724 18.5732 15.603 17.5735 15.603 15.8486C15.603 14.1165 16.6724 13.124 18.0859 13.124C19.4885 13.124 20.5615 14.1165 20.5615 15.8486ZM16.7236 15.8486C16.7236 16.9802 17.262 17.5955 18.0859 17.5991C18.9026 17.5955 19.4446 16.9802 19.4409 15.8486C19.4446 14.7134 18.9026 14.1018 18.0859 14.0981C17.262 14.1018 16.7236 14.7134 16.7236 15.8486ZM25.7764 13.1973V18.5H24.8242L22.4951 15.1309H22.4512V18.5H21.3525V13.1973H22.3193L24.6338 16.5664H24.6851V13.1973H25.7764ZM26.6699 18.5V13.1973H30.2295V14.1055H27.7686V15.3945H30.0464V16.3027H27.7686V17.5918H30.2368V18.5H26.6699Z" fill="#48AC3F"/>
<ellipse cx="20.5" cy="40.5" rx="16.5" ry="7" fill="#7C553E"/>
</g>
<defs>
<clipPath id="clip0_4903_168544">
<rect width="40" height="40" fill="white" transform="translate(0 0.5)"/>
</clipPath>
</defs>
</svg>
