<svg width="16" height="16" viewBox="0 0 16 16" fill="none" xmlns="http://www.w3.org/2000/svg">
<path fill-rule="evenodd" clip-rule="evenodd" d="M11.2693 2.38033H11.3359C13.1769 2.38033 14.6693 3.87271 14.6693 5.71366V11.7137C14.6693 13.5546 13.1769 15.047 11.3359 15.047H4.66927C3.78522 15.047 2.93737 14.6958 2.31225 14.0707C1.68713 13.4456 1.33594 12.5977 1.33594 11.7137V5.71366C1.33594 3.87271 2.82832 2.38033 4.66927 2.38033H4.73594V1.16699C4.73594 0.89085 4.95979 0.666992 5.23594 0.666992C5.51208 0.666992 5.73594 0.89085 5.73594 1.16699V2.38033H10.2693V1.16699C10.2693 0.89085 10.4931 0.666992 10.7693 0.666992C11.0454 0.666992 11.2693 0.89085 11.2693 1.16699V2.38033ZM5.0026 6.44033H11.0026C11.2787 6.44033 11.5026 6.21647 11.5026 5.94033C11.5026 5.66418 11.2787 5.44033 11.0026 5.44033H5.0026C4.72646 5.44033 4.5026 5.66418 4.5026 5.94033C4.5026 6.21647 4.72646 6.44033 5.0026 6.44033Z" fill="#64748B"/>
</svg>
