<svg width="66" height="66" viewBox="0 0 66 66" fill="none" xmlns="http://www.w3.org/2000/svg">
<circle cx="32" cy="32" r="32" fill="#334155"/>
<circle cx="32" cy="32" r="31" stroke="#F8FAFC" stroke-opacity="0.1" stroke-width="2"/>
<path d="M15.6512 38.2333C17.3355 47.264 26.0218 53.2194 35.0525 51.5351C44.0833 49.8508 50.0387 41.1646 48.3544 32.1338C46.6701 23.1031 37.9838 17.1476 28.9531 18.8319C19.9224 20.5162 13.9669 29.2025 15.6512 38.2333Z" fill="#64748B"/>
<circle cx="4.15839" cy="4.15839" r="4.15839" transform="matrix(-0.983048 0.183347 0.183347 0.983048 19.0078 32.2695)" fill="#64748B"/>
<ellipse cx="4.15839" cy="4.15839" rx="4.15839" ry="4.15839" transform="matrix(-0.983048 0.183347 0.183347 0.983048 51.7812 32.2695)" fill="#64748B"/>
<path fill-rule="evenodd" clip-rule="evenodd" d="M15.3407 31.0204C17.8239 32.7288 20.9601 33.439 24.1027 32.7333C27.2962 32.0162 29.8584 29.9804 31.3638 27.312C33.7695 31.5512 38.6771 33.9208 43.6008 32.8152C45.3699 32.418 46.9454 31.616 48.2547 30.5259C48.2056 30.2424 48.1493 29.9586 48.0855 29.6747C46.0363 20.5486 37.1088 14.782 28.1456 16.7947C21.1567 18.3641 16.2097 24.1996 15.3407 31.0204Z" fill="#1E293B"/>
<path fill-rule="evenodd" clip-rule="evenodd" d="M43.9528 21.7048L19.7098 21.4754C20.2889 16.79 25.5465 13.158 31.9106 13.2182C38.2746 13.2785 43.4625 17.0093 43.9528 21.7048Z" fill="#475569"/>
<rect x="15.6719" y="21.4375" width="32.3282" height="4.04102" rx="1.32284" transform="rotate(0.542194 15.6719 21.4375)" fill="#475569"/>
<path d="M27.8446 16.1668C27.8657 13.9351 29.692 12.1431 31.9237 12.1642C34.1553 12.1853 35.9474 14.0116 35.9263 16.2433L35.8753 21.6311L27.7936 21.5546L27.8446 16.1668Z" fill="#334155"/>
<circle cx="55" cy="55" r="10" fill="#334155" stroke="#0F172A" stroke-width="2"/>
<path d="M55.0138 51.1895C55.1184 50.964 55.3855 50.8668 55.6106 50.9723L57.5474 51.8803C57.7724 51.9858 57.8701 52.2541 57.7655 52.4795L55.0842 58.2603C55.0333 58.3701 54.9404 58.4546 54.8265 58.4947L53.4176 58.9904C53.1872 59.0714 52.9339 58.9527 52.8476 58.7231L52.3197 57.3195C52.277 57.2059 52.2816 57.0801 52.3325 56.9703L55.0138 51.1895Z" fill="#64748B"/>
<path d="M53.125 51.3809L58.4887 53.8973" stroke="#334155" stroke-width="0.5625"/>
</svg>
