<svg version="1.1" xmlns="http://www.w3.org/2000/svg" xmlns:xlink="http://www.w3.org/1999/xlink" width="16" height="16" viewBox="0,0,256,256"><g fill="none" fill-rule="nonzero" stroke="#e01919" stroke-width="1.2" stroke-linecap="butt" stroke-linejoin="miter" stroke-miterlimit="10" stroke-dasharray="" stroke-dashoffset="0" font-family="none" font-weight="none" font-size="none" text-anchor="none" style="mix-blend-mode: normal"><g transform="translate(-0.57472,2.8) scale(16,16)"><path d="M3.55987,9.31157c-0.14972,-0.13141 -0.26948,-0.23682 -0.35727,-0.31418v-0.04592l-0.17573,-0.17573c-0.69381,-0.69381 -1.09093,-1.61027 -1.09093,-2.57574v-0.12388c0.06147,-1.86992 1.65853,-3.40945 3.53333,-3.40945c0.27828,0 0.64749,0.09677 1.01554,0.29495c0.34733,0.18702 0.6522,0.44221 0.85464,0.7268c0.29449,0.62652 1.20229,0.61524 1.47468,-0.03385c0.16774,-0.29365 0.46173,-0.55907 0.81405,-0.75555c0.36762,-0.20502 0.73412,-0.29902 0.97442,-0.29902c1.9293,0 3.4717,1.52742 3.5333,3.47581v0.12419c0,1.04201 -0.4034,1.94473 -1.0721,2.55771l-0.1945,0.17835v0.04351c-0.1011,0.08568 -0.2314,0.19809 -0.3833,0.33017c-0.3372,0.29316 -0.7886,0.69025 -1.2801,1.12346c-0.1577,0.139 -0.3196,0.2817 -0.4832,0.426c-0.8562,0.7551 -1.76074,1.5527 -2.3741,2.0825c-0.17653,0.1444 -0.4488,0.1444 -0.62533,0c-0.73221,-0.6324 -1.89481,-1.6455 -2.88417,-2.5101c-0.49562,-0.4332 -0.94736,-0.82874 -1.27923,-1.12003z"></path></g></g></svg>