<svg width="24" height="24" viewBox="0 0 24 24" fill="none" xmlns="http://www.w3.org/2000/svg">
<path d="M18 20H6C5.44772 20 5 19.5523 5 19V17C5 14.7909 6.79086 13 9 13H15C17.2091 13 19 14.7909 19 17V19C19 19.5523 18.5523 20 18 20Z" fill="#F8FAFC"/>
<path d="M12 11C13.6569 11 15 9.65685 15 8C15 6.34315 13.6569 5 12 5C10.3431 5 9 6.34315 9 8C9 9.65685 10.3431 11 12 11Z" stroke="#F8FAFC" stroke-width="1.5" stroke-linecap="round" stroke-linejoin="round"/>
<circle cx="12" cy="8" r="3" fill="#F8FAFC"/>
</svg>
